<svg width="208" height="44" viewBox="0 0 208 44" fill="#333333" xmlns="http://www.w3.org/2000/svg" class="h-standard lg:h-semi w-fit mr-semi lg:mr-huge-x transition-colors duration-1000 fill-neutral-darkest"><path d="M79.7154 18.2979C88.2144 18.2979 92.1139 23.5972 92.1139 28.7966V40.0952H86.7146V28.7966C86.7146 25.597 84.8148 20.3976 79.7154 20.3976C74.5161 20.3976 72.7163 25.597 72.7163 28.7966V40.0952H67.4169V28.7966C67.3169 23.5972 71.2165 18.2979 79.7154 18.2979Z"></path><path d="M153.307 40.3951C144.808 40.3951 140.908 35.0957 140.908 29.8964V18.6977H146.207V29.9963C146.207 33.196 148.107 38.3953 153.207 38.3953C158.406 38.3953 160.206 33.196 160.206 29.9963V18.6977H165.505V29.9963C165.605 35.0957 161.706 40.3951 153.307 40.3951Z"></path><path d="M113.711 38.4953C112.612 39.3952 111.112 40.0952 109.412 40.2951C104.013 41.095 96.5135 37.5955 96.2135 29.7964C95.9135 21.7974 103.813 18.3978 109.012 18.5977C117.711 18.7977 120.811 25.3969 120.811 29.0965V40.0952H115.411V29.1965C115.411 26.7968 114.311 20.6975 108.812 20.5975C103.413 20.4975 101.713 25.4969 101.613 29.1965C101.613 31.5962 102.113 37.3955 108.312 37.7954C110.212 37.8954 112.911 37.3955 113.611 36.6956V38.4953H113.711Z"></path><path d="M137.608 43.1948C136.909 43.4947 134.909 43.8947 132.709 43.2948C130.209 42.6948 126.01 41.495 126.01 32.896C126.01 29.9964 126.01 9.09888 126.01 9.09888H131.409V18.4977H136.409V21.9973H131.409C131.409 21.9973 131.509 28.6965 131.409 34.0959C131.309 38.8953 132.809 40.5951 133.809 41.095C135.109 41.7949 137.309 41.495 137.509 41.295V43.1948H137.608Z"></path><path d="M170.704 28.0966C170.704 22.7972 173.404 19.0977 178.304 18.5978C181.703 18.2978 182.903 18.8977 182.903 18.8977V20.9975C182.903 20.9975 181.103 20.4975 179.103 21.0975C176.904 21.7974 176.004 25.097 176.004 26.1968V40.1952H170.704V28.0966Z"></path><path d="M200.901 38.4953C199.801 39.3952 198.301 40.0952 196.601 40.2951C191.202 41.095 183.703 37.5955 183.403 29.7964C183.103 21.7974 191.002 18.3978 196.201 18.5977C204.9 18.7977 208 25.3969 208 29.0965V40.0952H202.601V29.1965C202.601 26.7968 201.501 20.6975 196.001 20.5975C190.602 20.4975 188.902 25.4969 188.802 29.1965C188.802 31.5962 189.302 37.3955 195.502 37.7954C197.401 37.8954 200.101 37.3955 200.801 36.6956V38.4953H200.901Z"></path><path d="M29.2215 19.1977C29.8214 17.3979 30.1214 16.398 31.2212 12.8984C32.5211 8.49898 35.5207 4.9994 40.2202 6.49922C45.7195 8.19901 44.4197 13.6984 43.5198 15.9981C42.8198 17.7979 42.2199 19.6976 41.0201 22.6973C40.1202 25.097 42.1199 25.197 43.2198 24.997C44.4197 24.697 48.0192 22.8972 50.3189 21.7974C52.0187 20.9975 55.1184 19.1977 56.8182 20.9975C58.6179 22.7973 56.6182 25.8969 54.5184 27.7967C52.4187 29.6964 46.8194 31.9962 45.1196 32.6961C43.4198 33.396 42.7199 34.3959 43.6198 34.8958C44.4197 35.3957 46.9194 35.8957 47.7193 35.8957C48.3192 35.9957 48.9191 36.0957 48.9191 36.5956C48.9191 37.0955 47.5193 38.1954 44.1197 39.3953C42.3199 39.9952 38.9203 40.3951 37.0205 40.0952C34.0209 39.5952 33.621 39.0953 32.2211 39.5952C31.2212 39.9952 31.1213 40.7951 29.6214 41.395C28.1216 41.9949 25.9219 41.895 24.2221 41.595C22.5223 41.295 19.6226 40.9951 19.3227 39.6952C19.2227 39.1953 19.8226 38.7953 20.3226 38.2954C20.8225 37.7955 21.2224 36.6956 19.1227 36.2956C18.2228 35.9957 12.3235 34.9958 8.72395 33.196C5.0244 31.2962 3.62456 28.4966 4.02452 27.4967C4.32448 26.6968 5.12438 26.5968 6.32424 26.7968C7.62408 26.9968 13.2234 28.5966 14.9232 28.5966C15.6231 28.5966 16.1231 28.4966 16.423 27.9966C17.1229 26.7968 15.0232 25.3969 13.3234 23.3972C10.9237 20.4975 6.22425 15.6981 9.72383 11.3986C12.0236 8.59897 16.623 10.3987 18.5228 12.5985C20.0226 14.2983 22.5223 17.6979 24.4221 20.0976C25.222 20.9975 26.0219 21.4974 26.8218 21.4974C27.8217 21.2974 28.7215 20.5975 29.2215 19.1977ZM28.8215 6.09927C27.4217 8.69895 25.8219 14.3983 25.8219 14.3983C25.8219 14.3983 25.7219 14.7982 25.4219 14.2983C25.222 13.9983 22.9222 10.8987 21.8224 9.49886C20.5225 7.89905 14.6232 1.6998 7.92405 5.19937C1.82478 8.39899 4.1245 16.0981 6.02428 18.9977C7.12414 20.7975 9.32388 23.4972 9.92381 24.2971C10.0238 24.3971 10.0238 24.4971 9.82382 24.3971C9.32388 24.2971 7.92405 23.8971 5.42435 23.2972C3.22461 22.6973 1.02488 22.7973 0.424949 23.7971C-0.074991 24.4971 -0.274967 25.5969 0.624925 27.1967C2.42471 30.3963 7.32412 35.4957 15.4231 37.0955C15.6231 37.0955 15.5231 37.2955 15.4231 37.4955C14.9232 38.3954 15.2232 39.0953 15.5231 39.5952C16.723 40.9951 18.0228 41.595 23.4222 42.4949C30.8213 43.7947 33.521 41.295 33.8209 40.8951C33.8209 40.8951 33.8209 40.8951 33.9209 40.8951C35.1208 41.195 39.8202 42.2949 45.4195 39.8952C50.6189 37.6955 52.6187 35.6957 52.6187 34.4958C52.6187 33.396 49.919 33.496 49.1191 33.296C48.9191 33.196 48.9191 33.096 49.1191 32.996C49.519 32.7961 50.4189 32.3961 51.1189 31.9962C51.9188 31.5962 59.4179 27.7967 60.9177 21.3974C62.4175 14.9982 56.6182 14.8982 53.4186 16.298C50.3189 17.5979 47.3193 19.0977 46.6194 19.3977C46.5194 19.3977 46.5194 19.3977 46.5194 19.2977C46.8194 18.5978 47.9192 15.6981 48.5192 13.0984C49.2191 10.0988 48.9191 1.6998 40.6201 0.199976C40.1202 0.099988 39.5202 0 38.8203 0C35.0208 0 30.9213 2.19974 28.8215 6.09927Z"></path></svg>