<svg width="200" height="44" viewBox="0 0 200 44" fill="none" xmlns="http://www.w3.org/2000/svg">
<path fill-rule="evenodd" clip-rule="evenodd" d="M0.169071 18.6505C0.21681 23.9096 0.253311 24.093 1.51136 25.386C2.36548 26.264 4.88587 27.9064 5.37908 27.9064C5.42238 27.9064 5.45785 25.6378 5.45785 22.8652V17.8237L4.38632 17.4088C2.60078 16.7173 1.13921 15.6402 0.414411 14.4819L0.126953 14.0225L0.169071 18.6505Z" fill="#FC2791"/>
<path fill-rule="evenodd" clip-rule="evenodd" d="M16.665 1.09053C15.2415 1.44901 3.94701 6.66381 2.63191 7.56986C0.0463372 9.35098 0.836459 11.7547 4.71851 13.9173L5.53139 14.3701L5.48277 13.3622C5.37148 11.0569 5.48986 10.9606 12.2562 7.84916C18.3111 5.06502 18.0481 5.08162 22.4217 7.20668C23.9434 7.94598 26.5519 9.21434 28.2183 10.0252C32.6648 12.1889 33.0199 12.1682 36.0516 9.5693L36.5688 9.12575L36.1844 8.97824C35.9729 8.89699 32.4633 7.1745 28.3853 5.15038C19.5355 0.758045 18.8828 0.531935 16.665 1.09053ZM16.314 9.39858C12.9901 10.4466 9.31826 12.7653 8.56094 14.2946L8.10632 15.2125L8.1143 21.0012C8.12627 29.524 8.13455 29.5403 14.0297 32.6553C18.5194 35.0277 19.3392 34.9109 26.6519 30.8579C27.6354 30.3128 28.5675 29.8202 28.7233 29.7634C29.1312 29.6142 28.9762 29.5068 26.6819 28.3495C24.1867 27.091 24.4323 27.0897 21.9266 28.3732C18.9082 29.9194 18.3513 29.8643 14.5759 27.6455C12.7603 26.5786 12.8485 26.9002 12.848 21.3533C12.8472 15.7621 12.763 16.0511 14.6941 15.0287C17.5832 13.4988 18.0288 13.5015 21.2984 15.0681C24.6527 16.6751 25.2742 16.6419 27.7641 14.7218C29.2041 13.6114 29.2146 13.6641 27.3745 12.7726C26.4973 12.3476 25.2476 11.7386 24.5973 11.4195C19.9393 9.13295 18.3706 8.75022 16.314 9.39858ZM0.0263803 29.9876C0.246155 33.6498 1.05327 34.3586 9.96162 38.7123C18.986 43.1227 18.4187 43.0315 23.1769 40.8381C30.8478 37.3019 36.3472 34.4445 36.3472 33.995C36.3472 33.7661 33.5895 32.4222 32.4355 32.0887C31.3022 31.7612 31.012 31.8642 26.223 34.2939C20.5767 37.1587 19.0739 37.8137 18.4248 37.6927C18.1459 37.6406 16.2281 36.7359 14.1632 35.6822C12.0982 34.6283 8.11415 32.6395 5.3097 31.2622C2.50524 29.8852 0.150383 28.7217 0.0767797 28.6767C-0.00184851 28.6288 -0.0226884 29.1702 0.0263803 29.9876Z" fill="#262E32"/>
<path d="M56.9588 27.782C56.0229 28.7899 54.2231 30.1338 50.9594 30.1338C46.1118 30.1338 42.3682 26.8461 42.3682 21.5906C42.3682 16.3351 46.1598 13.0474 50.9594 13.0474C54.1991 13.0474 56.0709 14.4152 56.7429 15.0872L55.639 17.6309C55.159 17.007 53.2872 15.7351 50.9354 15.7351C48.0556 15.7351 45.5839 17.6309 45.5839 21.5426C45.5839 25.1183 47.8157 27.4461 51.1274 27.4461C53.3352 27.4461 54.871 26.4861 55.8549 25.4302L56.9588 27.782Z" fill="#FC2791"/>
<path d="M63.8277 13.2633H66.8514L73.3548 29.8458H69.9471L68.5072 26.0302H62.0038L60.564 29.8458H57.3242L63.8277 13.2633ZM67.7393 23.5344L65.2675 16.839L62.7718 23.5344H67.7393Z" fill="#FC2791"/>
<path d="M80.3151 13.2873C82.0669 13.2873 83.4588 13.6713 84.4907 14.4632C85.5226 15.2552 86.2666 16.527 86.2666 18.1109C86.2666 19.5748 85.8586 20.6067 85.1867 21.3266C84.5387 22.0226 83.6748 22.4545 82.6909 22.7425L87.1545 29.8458H83.5068L79.5952 23.1265H78.1073V29.8458H74.9876V13.2873H80.3151ZM79.7152 20.6787C80.7231 20.6787 81.491 20.6067 82.0909 20.1507C82.7149 19.6948 83.0508 19.1428 83.0508 18.2069C83.0508 17.295 82.7149 16.695 82.0909 16.2631C81.491 15.8071 80.7231 15.7351 79.7152 15.7351H78.0833V20.6787H79.7152Z" fill="#FC2791"/>
<path d="M93.9774 13.2873C95.3212 13.2873 96.5691 13.4073 97.649 13.9353C98.9449 14.5592 99.7848 15.5671 99.7848 17.247C99.7848 19.4788 98.297 20.6547 97.2171 21.0866V21.1346C99.3529 21.6146 100.769 23.0065 100.769 25.2383C100.769 26.9181 99.9288 28.214 98.8009 28.9339C97.769 29.5819 96.3051 29.8458 94.7213 29.8458H88.6738V13.2873H93.9774ZM93.7374 20.1987C94.6013 20.1987 95.2012 20.1027 95.7052 19.7908C96.2812 19.4308 96.6171 18.8548 96.6171 17.9669C96.6171 17.199 96.3531 16.671 95.8972 16.3111C95.3932 15.9271 94.6973 15.7351 93.8814 15.7351H91.7936V20.1987H93.7374ZM94.4813 27.3981C95.2732 27.3981 96.0412 27.3741 96.6171 26.9901C97.2411 26.5821 97.601 25.8382 97.601 24.9743C97.601 24.0624 97.1931 23.4384 96.5691 23.0065C95.9452 22.5745 95.2972 22.4785 94.3373 22.4785H91.7936V27.3981H94.4813Z" fill="#FC2791"/>
<path d="M110.979 30.1338C106.203 30.1338 102.316 26.9181 102.316 21.5906C102.316 16.2631 106.203 13.0474 110.979 13.0474C115.779 13.0474 119.642 16.2631 119.642 21.5906C119.642 26.9181 115.779 30.1338 110.979 30.1338ZM110.979 27.3981C114.051 27.3981 116.427 25.1663 116.427 21.5666C116.427 17.9669 114.051 15.7591 110.979 15.7591C107.907 15.7591 105.532 17.9669 105.532 21.5666C105.532 25.1663 107.931 27.3981 110.979 27.3981Z" fill="#FC2791"/>
<path d="M122.093 13.2873H125.404L133.636 25.3582C133.636 25.3582 133.588 23.4144 133.588 21.4466V13.2873H136.635V29.8458H133.492L125.092 17.6309C125.092 17.6309 125.14 19.7428 125.14 21.7106V29.8458H122.093V13.2873Z" fill="#FC2791"/>
<path d="M148.683 14.8232H143.859V13.2873H155.282V14.8232H150.483V29.8458H148.683V14.8232Z" fill="#262E32"/>
<path d="M157.399 13.2873H166.686V14.8472H159.198V20.3187H166.254V21.8786H159.198V28.286H166.854V29.8458H157.399V13.2873Z" fill="#262E32"/>
<path d="M183.448 27.638C182.344 28.8619 180.376 30.1338 177.304 30.1338C172.385 30.1338 168.953 26.7021 168.953 21.5906C168.953 16.503 172.649 13.0474 177.376 13.0474C180.352 13.0474 182.248 14.2953 183.304 15.3512L182.392 16.767C181.648 15.8071 179.728 14.6552 177.424 14.6552C173.537 14.6552 170.801 17.439 170.801 21.5426C170.801 25.6462 173.609 28.43 177.424 28.43C179.656 28.43 181.384 27.614 182.536 26.3662L183.448 27.638Z" fill="#262E32"/>
<path d="M186.037 29.8458V13.2873H187.837V20.2947H197.34V13.2873H199.14V29.8458H197.34V21.8546H187.837V29.8458H186.037Z" fill="#262E32"/>
</svg>
