<svg width="290" height="63" viewBox="0 0 290 63" fill="none" xmlns="http://www.w3.org/2000/svg">
<path fill-rule="evenodd" clip-rule="evenodd" d="M0.244665 27.0369C0.313886 34.5997 0.366813 34.8633 2.19099 36.7228C3.42946 37.9853 7.08403 40.3471 7.79917 40.3471C7.86196 40.3471 7.9134 37.0849 7.9134 33.0977V25.8481L6.35968 25.2515C3.77065 24.257 1.65137 22.7082 0.600408 21.0425L0.183594 20.3818L0.244665 27.0369Z" fill="#FC2791"/>
<path fill-rule="evenodd" clip-rule="evenodd" d="M24.1642 1.78598C22.1002 2.30148 5.72316 9.80041 3.81626 11.1033C0.0671889 13.6646 1.21287 17.1212 6.84183 20.231L8.02052 20.8821L7.95002 19.4328C7.78864 16.1177 7.9603 15.9793 17.7715 11.505C26.5512 7.50133 26.1697 7.52521 32.5114 10.5811C34.7179 11.6442 38.5002 13.4681 40.9165 14.6341C47.3639 17.7455 47.8789 17.7158 52.2748 13.9785L53.0248 13.3407L52.4674 13.1286C52.1607 13.0118 47.0718 10.5348 41.1587 7.62408C28.3265 1.30786 27.3801 0.982715 24.1642 1.78598ZM23.6552 13.733C18.8357 15.2401 13.5115 18.5744 12.4134 20.7735L11.7542 22.0935L11.7657 30.4177C11.7831 42.6737 11.7951 42.6971 20.3431 47.1765C26.8531 50.5879 28.0419 50.42 38.6453 44.5918C40.0713 43.808 41.4229 43.0996 41.6488 43.0178C42.2403 42.8034 42.0155 42.6489 38.6888 40.9847C35.0707 39.175 35.4269 39.1731 31.7935 41.0188C27.4169 43.2422 26.6094 43.163 21.135 39.9723C18.5025 38.4381 18.6304 38.9005 18.6295 30.9241C18.6285 22.8839 18.5063 23.2995 21.3064 21.8292C25.4957 19.6293 26.1418 19.6331 30.8827 21.8859C35.7464 24.1968 36.6475 24.149 40.258 21.3879C42.346 19.7911 42.3612 19.8669 39.6931 18.5849C38.4212 17.9737 36.609 17.098 35.666 16.6391C28.9119 13.3511 26.6373 12.8007 23.6552 13.733ZM0.0382514 43.3402C0.356925 48.6066 1.52725 49.6258 14.4443 55.8865C27.5297 62.2287 26.7072 62.0975 33.6065 58.9434C44.7293 53.8582 52.7034 49.7494 52.7034 49.1029C52.7034 48.7737 48.7048 46.8412 47.0315 46.3616C45.3882 45.8907 44.9673 46.0388 38.0234 49.5328C29.8363 53.6525 27.6572 54.5943 26.716 54.4202C26.3116 54.3454 23.5307 53.0444 20.5367 51.5292C17.5424 50.0137 11.7655 47.1537 7.69906 45.1732C3.6326 43.193 0.218055 41.5199 0.111331 41.4552C-0.00268034 41.3864 -0.0328982 42.1649 0.0382514 43.3402Z" fill="white"/>
<path d="M82.5901 40.1686C81.233 41.618 78.6232 43.5505 73.8909 43.5505C66.8619 43.5505 61.4336 38.8227 61.4336 31.2652C61.4336 23.7077 66.9315 18.98 73.8909 18.98C78.5884 18.98 81.3026 20.947 82.2769 21.9133L80.6763 25.5712C79.9803 24.674 77.2662 22.845 73.8561 22.845C69.6804 22.845 66.0964 25.5712 66.0964 31.1962C66.0964 36.3381 69.3325 39.6855 74.1344 39.6855C77.3358 39.6855 79.5627 38.3051 80.9894 36.7867L82.5901 40.1686Z" fill="#FC2791"/>
<path d="M92.5499 19.2906H96.9343L106.364 43.1364H101.423L99.3352 37.6494H89.9053L87.8175 43.1364H83.1199L92.5499 19.2906ZM98.2217 34.0605L94.6377 24.4324L91.0188 34.0605H98.2217Z" fill="#FC2791"/>
<path d="M116.457 19.3251C118.997 19.3251 121.015 19.8772 122.511 21.016C124.008 22.1548 125.086 23.9838 125.086 26.2614C125.086 28.3665 124.495 29.8504 123.52 30.8856C122.581 31.8864 121.328 32.5076 119.902 32.9217L126.374 43.1364H121.085L115.413 33.4738H113.255V43.1364H108.732V19.3251H116.457ZM115.587 29.9539C117.048 29.9539 118.162 29.8504 119.032 29.1947C119.936 28.539 120.423 27.7453 120.423 26.3994C120.423 25.0881 119.936 24.2254 119.032 23.6042C118.162 22.9485 117.048 22.845 115.587 22.845H113.221V29.9539H115.587Z" fill="#FC2791"/>
<path d="M136.267 19.3251C138.216 19.3251 140.025 19.4976 141.591 20.2568C143.47 21.1541 144.688 22.6034 144.688 25.0191C144.688 28.2284 142.53 29.9194 140.965 30.5405V30.6096C144.061 31.2997 146.114 33.3013 146.114 36.5106C146.114 38.9263 144.897 40.7898 143.261 41.825C141.765 42.7568 139.642 43.1364 137.346 43.1364H128.577V19.3251H136.267ZM135.919 29.2637C137.172 29.2637 138.042 29.1257 138.772 28.677C139.607 28.1594 140.095 27.3312 140.095 26.0544C140.095 24.9501 139.712 24.1909 139.051 23.6732C138.32 23.1211 137.311 22.845 136.128 22.845H133.1V29.2637H135.919ZM136.998 39.6164C138.146 39.6164 139.259 39.5819 140.095 39.0298C140.999 38.4431 141.521 37.3733 141.521 36.131C141.521 34.8197 140.93 33.9224 140.025 33.3013C139.12 32.6801 138.181 32.5421 136.789 32.5421H133.1V39.6164H136.998Z" fill="#FC2791"/>
<path d="M160.919 43.5505C153.995 43.5505 148.358 38.9263 148.358 31.2652C148.358 23.6042 153.995 18.98 160.919 18.98C167.879 18.98 173.481 23.6042 173.481 31.2652C173.481 38.9263 167.879 43.5505 160.919 43.5505ZM160.919 39.6164C165.373 39.6164 168.818 36.4071 168.818 31.2307C168.818 26.0544 165.373 22.8795 160.919 22.8795C156.465 22.8795 153.021 26.0544 153.021 31.2307C153.021 36.4071 156.5 39.6164 160.919 39.6164Z" fill="#FC2791"/>
<path d="M177.034 19.3251H181.836L193.771 36.6832C193.771 36.6832 193.702 33.8879 193.702 31.0582V19.3251H198.121V43.1364H193.563L181.384 25.5712C181.384 25.5712 181.453 28.608 181.453 31.4378V43.1364H177.034V19.3251Z" fill="#FC2791"/>
<path d="M215.59 21.5337H208.596V19.3251H225.159V21.5337H218.2V43.1364H215.59V21.5337Z" fill="white"/>
<path d="M228.228 19.3251H241.694V21.5682H230.837V29.4362H241.068V31.6793H230.837V40.8933H241.938V43.1364H228.228V19.3251Z" fill="white"/>
<path d="M265.999 39.9615C264.398 41.7215 261.545 43.5505 257.091 43.5505C249.958 43.5505 244.982 38.6157 244.982 31.2652C244.982 23.9493 250.341 18.98 257.195 18.98C261.51 18.98 264.259 20.7745 265.79 22.2929L264.468 24.3289C263.389 22.9485 260.606 21.2921 257.265 21.2921C251.628 21.2921 247.661 25.2952 247.661 31.1962C247.661 37.0973 251.732 41.1003 257.265 41.1003C260.501 41.1003 263.007 39.927 264.677 38.1325L265.999 39.9615Z" fill="white"/>
<path d="M269.754 43.1364V19.3251H272.363V29.4017H286.143V19.3251H288.753V43.1364H286.143V31.6448H272.363V43.1364H269.754Z" fill="white"/>
</svg>
