<svg width="37" height="44" viewBox="0 0 37 44" fill="none" xmlns="http://www.w3.org/2000/svg">
<path fill-rule="evenodd" clip-rule="evenodd" d="M0.169071 18.6505C0.21681 23.9096 0.253311 24.093 1.51136 25.386C2.36548 26.264 4.88587 27.9064 5.37908 27.9064C5.42238 27.9064 5.45785 25.6378 5.45785 22.8652V17.8237L4.38632 17.4088C2.60078 16.7173 1.13921 15.6402 0.414411 14.4819L0.126953 14.0225L0.169071 18.6505Z" fill="#FC2791"/>
<path fill-rule="evenodd" clip-rule="evenodd" d="M16.665 1.09053C15.2415 1.44901 3.94701 6.66381 2.63191 7.56986C0.0463372 9.35098 0.836459 11.7547 4.71851 13.9173L5.53139 14.3701L5.48277 13.3622C5.37148 11.0569 5.48986 10.9606 12.2562 7.84916C18.3111 5.06502 18.0481 5.08162 22.4217 7.20668C23.9434 7.94598 26.5519 9.21434 28.2183 10.0252C32.6648 12.1889 33.0199 12.1682 36.0516 9.5693L36.5688 9.12575L36.1844 8.97824C35.9729 8.89699 32.4633 7.1745 28.3853 5.15038C19.5355 0.758045 18.8828 0.531935 16.665 1.09053ZM16.314 9.39858C12.9901 10.4466 9.31826 12.7653 8.56094 14.2946L8.10632 15.2125L8.1143 21.0012C8.12627 29.524 8.13455 29.5403 14.0297 32.6553C18.5194 35.0277 19.3392 34.9109 26.6519 30.8579C27.6354 30.3128 28.5675 29.8202 28.7233 29.7634C29.1312 29.6142 28.9762 29.5068 26.6819 28.3495C24.1867 27.091 24.4323 27.0897 21.9266 28.3732C18.9082 29.9194 18.3513 29.8643 14.5759 27.6455C12.7603 26.5786 12.8485 26.9002 12.848 21.3533C12.8472 15.7621 12.763 16.0511 14.6941 15.0287C17.5832 13.4988 18.0288 13.5015 21.2984 15.0681C24.6527 16.6751 25.2742 16.6419 27.7641 14.7218C29.2041 13.6114 29.2146 13.6641 27.3745 12.7726C26.4973 12.3476 25.2476 11.7386 24.5973 11.4195C19.9393 9.13295 18.3706 8.75022 16.314 9.39858ZM0.0263803 29.9876C0.246155 33.6498 1.05327 34.3586 9.96162 38.7123C18.986 43.1227 18.4187 43.0315 23.1769 40.8381C30.8478 37.3019 36.3472 34.4445 36.3472 33.995C36.3472 33.7661 33.5895 32.4222 32.4355 32.0887C31.3022 31.7612 31.012 31.8642 26.223 34.2939C20.5767 37.1587 19.0739 37.8137 18.4248 37.6927C18.1459 37.6406 16.2281 36.7359 14.1632 35.6822C12.0982 34.6283 8.11415 32.6395 5.3097 31.2622C2.50524 29.8852 0.150383 28.7217 0.0767797 28.6767C-0.00184851 28.6288 -0.0226884 29.1702 0.0263803 29.9876Z" fill="#262E32"/>
</svg>
